<?xml version="1.0" encoding="UTF-8"?>
<svg width="24" height="24" viewBox="0 0 24 24" xmlns="http://www.w3.org/2000/svg">
  <path fill="#2684FF" d="M11.571 11.513H0a5.218 5.218 0 0 0 5.232 5.215h2.13v2.057A5.23 5.23 0 0 0 12.575 24V12.518a1.005 1.005 0 0 0-1.005-1.005z"/>
  <path fill="#1D78F2" d="M5.968 6.31H17.55c0 2.874-2.341 5.204-5.232 5.204h-2.12V13.57c0 2.876-2.332 5.215-5.23 5.215V7.315c0-.553.45-1.005 1.001-1.005z"/>
  <path fill="#126CE5" d="M11.572 1.005h-5.6c-2.89 0-5.231 2.33-5.231 5.206h11.835c.551 0 1.004.452 1.004 1.005V18.78c2.88 0 5.22-2.33 5.22-5.205V6.22c0-2.883-2.34-5.215-5.22-5.215h-2.008z"/>
</svg>